# generated by migrate.py
v 0.030000 -0.030000 -0.050000
v 0.030000 -0.030000 -0.037500
v 0.030000 -0.030000 -0.025000
v 0.030000 -0.030000 -0.012500
v 0.030000 -0.030000 0.000000
v 0.030000 -0.030000 0.012500
v 0.030000 -0.030000 0.025000
v 0.030000 -0.030000 0.037500
v 0.030000 -0.030000 0.050000
v 0.030000 -0.022500 -0.050000
v 0.030000 -0.022500 -0.037500
v 0.030000 -0.022500 -0.025000
v 0.030000 -0.022500 -0.012500
v 0.030000 -0.022500 0.000000
v 0.030000 -0.022500 0.012500
v 0.030000 -0.022500 0.025000
v 0.030000 -0.022500 0.037500
v 0.030000 -0.022500 0.050000
v 0.030000 -0.015000 -0.050000
v 0.030000 -0.015000 -0.037500
v 0.030000 -0.015000 -0.025000
v 0.030000 -0.015000 -0.012500
v 0.030000 -0.015000 0.000000
v 0.030000 -0.015000 0.012500
v 0.030000 -0.015000 0.025000
v 0.030000 -0.015000 0.037500
v 0.030000 -0.015000 0.050000
v 0.030000 -0.007500 -0.050000
v 0.030000 -0.007500 -0.037500
v 0.030000 -0.007500 -0.025000
v 0.030000 -0.007500 -0.012500
v 0.030000 -0.007500 0.000000
v 0.030000 -0.007500 0.012500
v 0.030000 -0.007500 0.025000
v 0.030000 -0.007500 0.037500
v 0.030000 -0.007500 0.050000
v 0.030000 0.000000 -0.050000
v 0.030000 0.000000 -0.037500
v 0.030000 0.000000 -0.025000
v 0.030000 0.000000 -0.012500
v 0.030000 0.000000 0.000000
v 0.030000 0.000000 0.012500
v 0.030000 0.000000 0.025000
v 0.030000 0.000000 0.037500
v 0.030000 0.000000 0.050000
v 0.030000 0.007500 -0.050000
v 0.030000 0.007500 -0.037500
v 0.030000 0.007500 -0.025000
v 0.030000 0.007500 -0.012500
v 0.030000 0.007500 0.000000
v 0.030000 0.007500 0.012500
v 0.030000 0.007500 0.025000
v 0.030000 0.007500 0.037500
v 0.030000 0.007500 0.050000
v 0.030000 0.015000 -0.050000
v 0.030000 0.015000 -0.037500
v 0.030000 0.015000 -0.025000
v 0.030000 0.015000 -0.012500
v 0.030000 0.015000 0.000000
v 0.030000 0.015000 0.012500
v 0.030000 0.015000 0.025000
v 0.030000 0.015000 0.037500
v 0.030000 0.015000 0.050000
v 0.030000 0.022500 -0.050000
v 0.030000 0.022500 -0.037500
v 0.030000 0.022500 -0.025000
v 0.030000 0.022500 -0.012500
v 0.030000 0.022500 0.000000
v 0.030000 0.022500 0.012500
v 0.030000 0.022500 0.025000
v 0.030000 0.022500 0.037500
v 0.030000 0.022500 0.050000
v 0.030000 0.030000 -0.050000
v 0.030000 0.030000 -0.037500
v 0.030000 0.030000 -0.025000
v 0.030000 0.030000 -0.012500
v 0.030000 0.030000 0.000000
v 0.030000 0.030000 0.012500
v 0.030000 0.030000 0.025000
v 0.030000 0.030000 0.037500
v 0.030000 0.030000 0.050000
v -0.030000 -0.030000 -0.050000
v -0.030000 -0.030000 -0.037500
v -0.030000 -0.030000 -0.025000
v -0.030000 -0.030000 -0.012500
v -0.030000 -0.030000 0.000000
v -0.030000 -0.030000 0.012500
v -0.030000 -0.030000 0.025000
v -0.030000 -0.030000 0.037500
v -0.030000 -0.030000 0.050000
v -0.030000 -0.022500 -0.050000
v -0.030000 -0.022500 -0.037500
v -0.030000 -0.022500 -0.025000
v -0.030000 -0.022500 -0.012500
v -0.030000 -0.022500 0.000000
v -0.030000 -0.022500 0.012500
v -0.030000 -0.022500 0.025000
v -0.030000 -0.022500 0.037500
v -0.030000 -0.022500 0.050000
v -0.030000 -0.015000 -0.050000
v -0.030000 -0.015000 -0.037500
v -0.030000 -0.015000 -0.025000
v -0.030000 -0.015000 -0.012500
v -0.030000 -0.015000 0.000000
v -0.030000 -0.015000 0.012500
v -0.030000 -0.015000 0.025000
v -0.030000 -0.015000 0.037500
v -0.030000 -0.015000 0.050000
v -0.030000 -0.007500 -0.050000
v -0.030000 -0.007500 -0.037500
v -0.030000 -0.007500 -0.025000
v -0.030000 -0.007500 -0.012500
v -0.030000 -0.007500 0.000000
v -0.030000 -0.007500 0.012500
v -0.030000 -0.007500 0.025000
v -0.030000 -0.007500 0.037500
v -0.030000 -0.007500 0.050000
v -0.030000 0.000000 -0.050000
v -0.030000 0.000000 -0.037500
v -0.030000 0.000000 -0.025000
v -0.030000 0.000000 -0.012500
v -0.030000 0.000000 0.000000
v -0.030000 0.000000 0.012500
v -0.030000 0.000000 0.025000
v -0.030000 0.000000 0.037500
v -0.030000 0.000000 0.050000
v -0.030000 0.007500 -0.050000
v -0.030000 0.007500 -0.037500
v -0.030000 0.007500 -0.025000
v -0.030000 0.007500 -0.012500
v -0.030000 0.007500 0.000000
v -0.030000 0.007500 0.012500
v -0.030000 0.007500 0.025000
v -0.030000 0.007500 0.037500
v -0.030000 0.007500 0.050000
v -0.030000 0.015000 -0.050000
v -0.030000 0.015000 -0.037500
v -0.030000 0.015000 -0.025000
v -0.030000 0.015000 -0.012500
v -0.030000 0.015000 0.000000
v -0.030000 0.015000 0.012500
v -0.030000 0.015000 0.025000
v -0.030000 0.015000 0.037500
v -0.030000 0.015000 0.050000
v -0.030000 0.022500 -0.050000
v -0.030000 0.022500 -0.037500
v -0.030000 0.022500 -0.025000
v -0.030000 0.022500 -0.012500
v -0.030000 0.022500 0.000000
v -0.030000 0.022500 0.012500
v -0.030000 0.022500 0.025000
v -0.030000 0.022500 0.037500
v -0.030000 0.022500 0.050000
v -0.030000 0.030000 -0.050000
v -0.030000 0.030000 -0.037500
v -0.030000 0.030000 -0.025000
v -0.030000 0.030000 -0.012500
v -0.030000 0.030000 0.000000
v -0.030000 0.030000 0.012500
v -0.030000 0.030000 0.025000
v -0.030000 0.030000 0.037500
v -0.030000 0.030000 0.050000
v -0.030000 0.030000 -0.050000
v -0.030000 0.030000 -0.037500
v -0.030000 0.030000 -0.025000
v -0.030000 0.030000 -0.012500
v -0.030000 0.030000 0.000000
v -0.030000 0.030000 0.012500
v -0.030000 0.030000 0.025000
v -0.030000 0.030000 0.037500
v -0.030000 0.030000 0.050000
v -0.022500 0.030000 -0.050000
v -0.022500 0.030000 -0.037500
v -0.022500 0.030000 -0.025000
v -0.022500 0.030000 -0.012500
v -0.022500 0.030000 0.000000
v -0.022500 0.030000 0.012500
v -0.022500 0.030000 0.025000
v -0.022500 0.030000 0.037500
v -0.022500 0.030000 0.050000
v -0.015000 0.030000 -0.050000
v -0.015000 0.030000 -0.037500
v -0.015000 0.030000 -0.025000
v -0.015000 0.030000 -0.012500
v -0.015000 0.030000 0.000000
v -0.015000 0.030000 0.012500
v -0.015000 0.030000 0.025000
v -0.015000 0.030000 0.037500
v -0.015000 0.030000 0.050000
v -0.007500 0.030000 -0.050000
v -0.007500 0.030000 -0.037500
v -0.007500 0.030000 -0.025000
v -0.007500 0.030000 -0.012500
v -0.007500 0.030000 0.000000
v -0.007500 0.030000 0.012500
v -0.007500 0.030000 0.025000
v -0.007500 0.030000 0.037500
v -0.007500 0.030000 0.050000
v 0.000000 0.030000 -0.050000
v 0.000000 0.030000 -0.037500
v 0.000000 0.030000 -0.025000
v 0.000000 0.030000 -0.012500
v 0.000000 0.030000 0.000000
v 0.000000 0.030000 0.012500
v 0.000000 0.030000 0.025000
v 0.000000 0.030000 0.037500
v 0.000000 0.030000 0.050000
v 0.007500 0.030000 -0.050000
v 0.007500 0.030000 -0.037500
v 0.007500 0.030000 -0.025000
v 0.007500 0.030000 -0.012500
v 0.007500 0.030000 0.000000
v 0.007500 0.030000 0.012500
v 0.007500 0.030000 0.025000
v 0.007500 0.030000 0.037500
v 0.007500 0.030000 0.050000
v 0.015000 0.030000 -0.050000
v 0.015000 0.030000 -0.037500
v 0.015000 0.030000 -0.025000
v 0.015000 0.030000 -0.012500
v 0.015000 0.030000 0.000000
v 0.015000 0.030000 0.012500
v 0.015000 0.030000 0.025000
v 0.015000 0.030000 0.037500
v 0.015000 0.030000 0.050000
v 0.022500 0.030000 -0.050000
v 0.022500 0.030000 -0.037500
v 0.022500 0.030000 -0.025000
v 0.022500 0.030000 -0.012500
v 0.022500 0.030000 0.000000
v 0.022500 0.030000 0.012500
v 0.022500 0.030000 0.025000
v 0.022500 0.030000 0.037500
v 0.022500 0.030000 0.050000
v 0.030000 0.030000 -0.050000
v 0.030000 0.030000 -0.037500
v 0.030000 0.030000 -0.025000
v 0.030000 0.030000 -0.012500
v 0.030000 0.030000 0.000000
v 0.030000 0.030000 0.012500
v 0.030000 0.030000 0.025000
v 0.030000 0.030000 0.037500
v 0.030000 0.030000 0.050000
v -0.030000 -0.030000 -0.050000
v -0.030000 -0.030000 -0.037500
v -0.030000 -0.030000 -0.025000
v -0.030000 -0.030000 -0.012500
v -0.030000 -0.030000 0.000000
v -0.030000 -0.030000 0.012500
v -0.030000 -0.030000 0.025000
v -0.030000 -0.030000 0.037500
v -0.030000 -0.030000 0.050000
v -0.022500 -0.030000 -0.050000
v -0.022500 -0.030000 -0.037500
v -0.022500 -0.030000 -0.025000
v -0.022500 -0.030000 -0.012500
v -0.022500 -0.030000 0.000000
v -0.022500 -0.030000 0.012500
v -0.022500 -0.030000 0.025000
v -0.022500 -0.030000 0.037500
v -0.022500 -0.030000 0.050000
v -0.015000 -0.030000 -0.050000
v -0.015000 -0.030000 -0.037500
v -0.015000 -0.030000 -0.025000
v -0.015000 -0.030000 -0.012500
v -0.015000 -0.030000 0.000000
v -0.015000 -0.030000 0.012500
v -0.015000 -0.030000 0.025000
v -0.015000 -0.030000 0.037500
v -0.015000 -0.030000 0.050000
v -0.007500 -0.030000 -0.050000
v -0.007500 -0.030000 -0.037500
v -0.007500 -0.030000 -0.025000
v -0.007500 -0.030000 -0.012500
v -0.007500 -0.030000 0.000000
v -0.007500 -0.030000 0.012500
v -0.007500 -0.030000 0.025000
v -0.007500 -0.030000 0.037500
v -0.007500 -0.030000 0.050000
v 0.000000 -0.030000 -0.050000
v 0.000000 -0.030000 -0.037500
v 0.000000 -0.030000 -0.025000
v 0.000000 -0.030000 -0.012500
v 0.000000 -0.030000 0.000000
v 0.000000 -0.030000 0.012500
v 0.000000 -0.030000 0.025000
v 0.000000 -0.030000 0.037500
v 0.000000 -0.030000 0.050000
v 0.007500 -0.030000 -0.050000
v 0.007500 -0.030000 -0.037500
v 0.007500 -0.030000 -0.025000
v 0.007500 -0.030000 -0.012500
v 0.007500 -0.030000 0.000000
v 0.007500 -0.030000 0.012500
v 0.007500 -0.030000 0.025000
v 0.007500 -0.030000 0.037500
v 0.007500 -0.030000 0.050000
v 0.015000 -0.030000 -0.050000
v 0.015000 -0.030000 -0.037500
v 0.015000 -0.030000 -0.025000
v 0.015000 -0.030000 -0.012500
v 0.015000 -0.030000 0.000000
v 0.015000 -0.030000 0.012500
v 0.015000 -0.030000 0.025000
v 0.015000 -0.030000 0.037500
v 0.015000 -0.030000 0.050000
v 0.022500 -0.030000 -0.050000
v 0.022500 -0.030000 -0.037500
v 0.022500 -0.030000 -0.025000
v 0.022500 -0.030000 -0.012500
v 0.022500 -0.030000 0.000000
v 0.022500 -0.030000 0.012500
v 0.022500 -0.030000 0.025000
v 0.022500 -0.030000 0.037500
v 0.022500 -0.030000 0.050000
v 0.030000 -0.030000 -0.050000
v 0.030000 -0.030000 -0.037500
v 0.030000 -0.030000 -0.025000
v 0.030000 -0.030000 -0.012500
v 0.030000 -0.030000 0.000000
v 0.030000 -0.030000 0.012500
v 0.030000 -0.030000 0.025000
v 0.030000 -0.030000 0.037500
v 0.030000 -0.030000 0.050000
v -0.030000 -0.030000 0.050000
v -0.030000 -0.022500 0.050000
v -0.030000 -0.015000 0.050000
v -0.030000 -0.007500 0.050000
v -0.030000 0.000000 0.050000
v -0.030000 0.007500 0.050000
v -0.030000 0.015000 0.050000
v -0.030000 0.022500 0.050000
v -0.030000 0.030000 0.050000
v -0.022500 -0.030000 0.050000
v -0.022500 -0.022500 0.050000
v -0.022500 -0.015000 0.050000
v -0.022500 -0.007500 0.050000
v -0.022500 0.000000 0.050000
v -0.022500 0.007500 0.050000
v -0.022500 0.015000 0.050000
v -0.022500 0.022500 0.050000
v -0.022500 0.030000 0.050000
v -0.015000 -0.030000 0.050000
v -0.015000 -0.022500 0.050000
v -0.015000 -0.015000 0.050000
v -0.015000 -0.007500 0.050000
v -0.015000 0.000000 0.050000
v -0.015000 0.007500 0.050000
v -0.015000 0.015000 0.050000
v -0.015000 0.022500 0.050000
v -0.015000 0.030000 0.050000
v -0.007500 -0.030000 0.050000
v -0.007500 -0.022500 0.050000
v -0.007500 -0.015000 0.050000
v -0.007500 -0.007500 0.050000
v -0.007500 0.000000 0.050000
v -0.007500 0.007500 0.050000
v -0.007500 0.015000 0.050000
v -0.007500 0.022500 0.050000
v -0.007500 0.030000 0.050000
v 0.000000 -0.030000 0.050000
v 0.000000 -0.022500 0.050000
v 0.000000 -0.015000 0.050000
v 0.000000 -0.007500 0.050000
v 0.000000 0.000000 0.050000
v 0.000000 0.007500 0.050000
v 0.000000 0.015000 0.050000
v 0.000000 0.022500 0.050000
v 0.000000 0.030000 0.050000
v 0.007500 -0.030000 0.050000
v 0.007500 -0.022500 0.050000
v 0.007500 -0.015000 0.050000
v 0.007500 -0.007500 0.050000
v 0.007500 0.000000 0.050000
v 0.007500 0.007500 0.050000
v 0.007500 0.015000 0.050000
v 0.007500 0.022500 0.050000
v 0.007500 0.030000 0.050000
v 0.015000 -0.030000 0.050000
v 0.015000 -0.022500 0.050000
v 0.015000 -0.015000 0.050000
v 0.015000 -0.007500 0.050000
v 0.015000 0.000000 0.050000
v 0.015000 0.007500 0.050000
v 0.015000 0.015000 0.050000
v 0.015000 0.022500 0.050000
v 0.015000 0.030000 0.050000
v 0.022500 -0.030000 0.050000
v 0.022500 -0.022500 0.050000
v 0.022500 -0.015000 0.050000
v 0.022500 -0.007500 0.050000
v 0.022500 0.000000 0.050000
v 0.022500 0.007500 0.050000
v 0.022500 0.015000 0.050000
v 0.022500 0.022500 0.050000
v 0.022500 0.030000 0.050000
v 0.030000 -0.030000 0.050000
v 0.030000 -0.022500 0.050000
v 0.030000 -0.015000 0.050000
v 0.030000 -0.007500 0.050000
v 0.030000 0.000000 0.050000
v 0.030000 0.007500 0.050000
v 0.030000 0.015000 0.050000
v 0.030000 0.022500 0.050000
v 0.030000 0.030000 0.050000
v -0.030000 -0.030000 -0.050000
v -0.030000 -0.022500 -0.050000
v -0.030000 -0.015000 -0.050000
v -0.030000 -0.007500 -0.050000
v -0.030000 0.000000 -0.050000
v -0.030000 0.007500 -0.050000
v -0.030000 0.015000 -0.050000
v -0.030000 0.022500 -0.050000
v -0.030000 0.030000 -0.050000
v -0.022500 -0.030000 -0.050000
v -0.022500 -0.022500 -0.050000
v -0.022500 -0.015000 -0.050000
v -0.022500 -0.007500 -0.050000
v -0.022500 0.000000 -0.050000
v -0.022500 0.007500 -0.050000
v -0.022500 0.015000 -0.050000
v -0.022500 0.022500 -0.050000
v -0.022500 0.030000 -0.050000
v -0.015000 -0.030000 -0.050000
v -0.015000 -0.022500 -0.050000
v -0.015000 -0.015000 -0.050000
v -0.015000 -0.007500 -0.050000
v -0.015000 0.000000 -0.050000
v -0.015000 0.007500 -0.050000
v -0.015000 0.015000 -0.050000
v -0.015000 0.022500 -0.050000
v -0.015000 0.030000 -0.050000
v -0.007500 -0.030000 -0.050000
v -0.007500 -0.022500 -0.050000
v -0.007500 -0.015000 -0.050000
v -0.007500 -0.007500 -0.050000
v -0.007500 0.000000 -0.050000
v -0.007500 0.007500 -0.050000
v -0.007500 0.015000 -0.050000
v -0.007500 0.022500 -0.050000
v -0.007500 0.030000 -0.050000
v 0.000000 -0.030000 -0.050000
v 0.000000 -0.022500 -0.050000
v 0.000000 -0.015000 -0.050000
v 0.000000 -0.007500 -0.050000
v 0.000000 0.000000 -0.050000
v 0.000000 0.007500 -0.050000
v 0.000000 0.015000 -0.050000
v 0.000000 0.022500 -0.050000
v 0.000000 0.030000 -0.050000
v 0.007500 -0.030000 -0.050000
v 0.007500 -0.022500 -0.050000
v 0.007500 -0.015000 -0.050000
v 0.007500 -0.007500 -0.050000
v 0.007500 0.000000 -0.050000
v 0.007500 0.007500 -0.050000
v 0.007500 0.015000 -0.050000
v 0.007500 0.022500 -0.050000
v 0.007500 0.030000 -0.050000
v 0.015000 -0.030000 -0.050000
v 0.015000 -0.022500 -0.050000
v 0.015000 -0.015000 -0.050000
v 0.015000 -0.007500 -0.050000
v 0.015000 0.000000 -0.050000
v 0.015000 0.007500 -0.050000
v 0.015000 0.015000 -0.050000
v 0.015000 0.022500 -0.050000
v 0.015000 0.030000 -0.050000
v 0.022500 -0.030000 -0.050000
v 0.022500 -0.022500 -0.050000
v 0.022500 -0.015000 -0.050000
v 0.022500 -0.007500 -0.050000
v 0.022500 0.000000 -0.050000
v 0.022500 0.007500 -0.050000
v 0.022500 0.015000 -0.050000
v 0.022500 0.022500 -0.050000
v 0.022500 0.030000 -0.050000
v 0.030000 -0.030000 -0.050000
v 0.030000 -0.022500 -0.050000
v 0.030000 -0.015000 -0.050000
v 0.030000 -0.007500 -0.050000
v 0.030000 0.000000 -0.050000
v 0.030000 0.007500 -0.050000
v 0.030000 0.015000 -0.050000
v 0.030000 0.022500 -0.050000
v 0.030000 0.030000 -0.050000
f 1 2 10
f 2 11 10
f 2 3 11
f 3 12 11
f 3 4 12
f 4 13 12
f 4 5 13
f 5 14 13
f 5 6 14
f 6 15 14
f 6 7 15
f 7 16 15
f 7 8 16
f 8 17 16
f 8 9 17
f 9 18 17
f 10 11 19
f 11 20 19
f 11 12 20
f 12 21 20
f 12 13 21
f 13 22 21
f 13 14 22
f 14 23 22
f 14 15 23
f 15 24 23
f 15 16 24
f 16 25 24
f 16 17 25
f 17 26 25
f 17 18 26
f 18 27 26
f 19 20 28
f 20 29 28
f 20 21 29
f 21 30 29
f 21 22 30
f 22 31 30
f 22 23 31
f 23 32 31
f 23 24 32
f 24 33 32
f 24 25 33
f 25 34 33
f 25 26 34
f 26 35 34
f 26 27 35
f 27 36 35
f 28 29 37
f 29 38 37
f 29 30 38
f 30 39 38
f 30 31 39
f 31 40 39
f 31 32 40
f 32 41 40
f 32 33 41
f 33 42 41
f 33 34 42
f 34 43 42
f 34 35 43
f 35 44 43
f 35 36 44
f 36 45 44
f 37 38 46
f 38 47 46
f 38 39 47
f 39 48 47
f 39 40 48
f 40 49 48
f 40 41 49
f 41 50 49
f 41 42 50
f 42 51 50
f 42 43 51
f 43 52 51
f 43 44 52
f 44 53 52
f 44 45 53
f 45 54 53
f 46 47 55
f 47 56 55
f 47 48 56
f 48 57 56
f 48 49 57
f 49 58 57
f 49 50 58
f 50 59 58
f 50 51 59
f 51 60 59
f 51 52 60
f 52 61 60
f 52 53 61
f 53 62 61
f 53 54 62
f 54 63 62
f 55 56 64
f 56 65 64
f 56 57 65
f 57 66 65
f 57 58 66
f 58 67 66
f 58 59 67
f 59 68 67
f 59 60 68
f 60 69 68
f 60 61 69
f 61 70 69
f 61 62 70
f 62 71 70
f 62 63 71
f 63 72 71
f 64 65 73
f 65 74 73
f 65 66 74
f 66 75 74
f 66 67 75
f 67 76 75
f 67 68 76
f 68 77 76
f 68 69 77
f 69 78 77
f 69 70 78
f 70 79 78
f 70 71 79
f 71 80 79
f 71 72 80
f 72 81 80
f 82 83 91
f 83 92 91
f 83 84 92
f 84 93 92
f 84 85 93
f 85 94 93
f 85 86 94
f 86 95 94
f 86 87 95
f 87 96 95
f 87 88 96
f 88 97 96
f 88 89 97
f 89 98 97
f 89 90 98
f 90 99 98
f 91 92 100
f 92 101 100
f 92 93 101
f 93 102 101
f 93 94 102
f 94 103 102
f 94 95 103
f 95 104 103
f 95 96 104
f 96 105 104
f 96 97 105
f 97 106 105
f 97 98 106
f 98 107 106
f 98 99 107
f 99 108 107
f 100 101 109
f 101 110 109
f 101 102 110
f 102 111 110
f 102 103 111
f 103 112 111
f 103 104 112
f 104 113 112
f 104 105 113
f 105 114 113
f 105 106 114
f 106 115 114
f 106 107 115
f 107 116 115
f 107 108 116
f 108 117 116
f 109 110 118
f 110 119 118
f 110 111 119
f 111 120 119
f 111 112 120
f 112 121 120
f 112 113 121
f 113 122 121
f 113 114 122
f 114 123 122
f 114 115 123
f 115 124 123
f 115 116 124
f 116 125 124
f 116 117 125
f 117 126 125
f 118 119 127
f 119 128 127
f 119 120 128
f 120 129 128
f 120 121 129
f 121 130 129
f 121 122 130
f 122 131 130
f 122 123 131
f 123 132 131
f 123 124 132
f 124 133 132
f 124 125 133
f 125 134 133
f 125 126 134
f 126 135 134
f 127 128 136
f 128 137 136
f 128 129 137
f 129 138 137
f 129 130 138
f 130 139 138
f 130 131 139
f 131 140 139
f 131 132 140
f 132 141 140
f 132 133 141
f 133 142 141
f 133 134 142
f 134 143 142
f 134 135 143
f 135 144 143
f 136 137 145
f 137 146 145
f 137 138 146
f 138 147 146
f 138 139 147
f 139 148 147
f 139 140 148
f 140 149 148
f 140 141 149
f 141 150 149
f 141 142 150
f 142 151 150
f 142 143 151
f 143 152 151
f 143 144 152
f 144 153 152
f 145 146 154
f 146 155 154
f 146 147 155
f 147 156 155
f 147 148 156
f 148 157 156
f 148 149 157
f 149 158 157
f 149 150 158
f 150 159 158
f 150 151 159
f 151 160 159
f 151 152 160
f 152 161 160
f 152 153 161
f 153 162 161
f 163 164 172
f 164 173 172
f 164 165 173
f 165 174 173
f 165 166 174
f 166 175 174
f 166 167 175
f 167 176 175
f 167 168 176
f 168 177 176
f 168 169 177
f 169 178 177
f 169 170 178
f 170 179 178
f 170 171 179
f 171 180 179
f 172 173 181
f 173 182 181
f 173 174 182
f 174 183 182
f 174 175 183
f 175 184 183
f 175 176 184
f 176 185 184
f 176 177 185
f 177 186 185
f 177 178 186
f 178 187 186
f 178 179 187
f 179 188 187
f 179 180 188
f 180 189 188
f 181 182 190
f 182 191 190
f 182 183 191
f 183 192 191
f 183 184 192
f 184 193 192
f 184 185 193
f 185 194 193
f 185 186 194
f 186 195 194
f 186 187 195
f 187 196 195
f 187 188 196
f 188 197 196
f 188 189 197
f 189 198 197
f 190 191 199
f 191 200 199
f 191 192 200
f 192 201 200
f 192 193 201
f 193 202 201
f 193 194 202
f 194 203 202
f 194 195 203
f 195 204 203
f 195 196 204
f 196 205 204
f 196 197 205
f 197 206 205
f 197 198 206
f 198 207 206
f 199 200 208
f 200 209 208
f 200 201 209
f 201 210 209
f 201 202 210
f 202 211 210
f 202 203 211
f 203 212 211
f 203 204 212
f 204 213 212
f 204 205 213
f 205 214 213
f 205 206 214
f 206 215 214
f 206 207 215
f 207 216 215
f 208 209 217
f 209 218 217
f 209 210 218
f 210 219 218
f 210 211 219
f 211 220 219
f 211 212 220
f 212 221 220
f 212 213 221
f 213 222 221
f 213 214 222
f 214 223 222
f 214 215 223
f 215 224 223
f 215 216 224
f 216 225 224
f 217 218 226
f 218 227 226
f 218 219 227
f 219 228 227
f 219 220 228
f 220 229 228
f 220 221 229
f 221 230 229
f 221 222 230
f 222 231 230
f 222 223 231
f 223 232 231
f 223 224 232
f 224 233 232
f 224 225 233
f 225 234 233
f 226 227 235
f 227 236 235
f 227 228 236
f 228 237 236
f 228 229 237
f 229 238 237
f 229 230 238
f 230 239 238
f 230 231 239
f 231 240 239
f 231 232 240
f 232 241 240
f 232 233 241
f 233 242 241
f 233 234 242
f 234 243 242
f 244 245 253
f 245 254 253
f 245 246 254
f 246 255 254
f 246 247 255
f 247 256 255
f 247 248 256
f 248 257 256
f 248 249 257
f 249 258 257
f 249 250 258
f 250 259 258
f 250 251 259
f 251 260 259
f 251 252 260
f 252 261 260
f 253 254 262
f 254 263 262
f 254 255 263
f 255 264 263
f 255 256 264
f 256 265 264
f 256 257 265
f 257 266 265
f 257 258 266
f 258 267 266
f 258 259 267
f 259 268 267
f 259 260 268
f 260 269 268
f 260 261 269
f 261 270 269
f 262 263 271
f 263 272 271
f 263 264 272
f 264 273 272
f 264 265 273
f 265 274 273
f 265 266 274
f 266 275 274
f 266 267 275
f 267 276 275
f 267 268 276
f 268 277 276
f 268 269 277
f 269 278 277
f 269 270 278
f 270 279 278
f 271 272 280
f 272 281 280
f 272 273 281
f 273 282 281
f 273 274 282
f 274 283 282
f 274 275 283
f 275 284 283
f 275 276 284
f 276 285 284
f 276 277 285
f 277 286 285
f 277 278 286
f 278 287 286
f 278 279 287
f 279 288 287
f 280 281 289
f 281 290 289
f 281 282 290
f 282 291 290
f 282 283 291
f 283 292 291
f 283 284 292
f 284 293 292
f 284 285 293
f 285 294 293
f 285 286 294
f 286 295 294
f 286 287 295
f 287 296 295
f 287 288 296
f 288 297 296
f 289 290 298
f 290 299 298
f 290 291 299
f 291 300 299
f 291 292 300
f 292 301 300
f 292 293 301
f 293 302 301
f 293 294 302
f 294 303 302
f 294 295 303
f 295 304 303
f 295 296 304
f 296 305 304
f 296 297 305
f 297 306 305
f 298 299 307
f 299 308 307
f 299 300 308
f 300 309 308
f 300 301 309
f 301 310 309
f 301 302 310
f 302 311 310
f 302 303 311
f 303 312 311
f 303 304 312
f 304 313 312
f 304 305 313
f 305 314 313
f 305 306 314
f 306 315 314
f 307 308 316
f 308 317 316
f 308 309 317
f 309 318 317
f 309 310 318
f 310 319 318
f 310 311 319
f 311 320 319
f 311 312 320
f 312 321 320
f 312 313 321
f 313 322 321
f 313 314 322
f 314 323 322
f 314 315 323
f 315 324 323
f 325 326 334
f 326 335 334
f 326 327 335
f 327 336 335
f 327 328 336
f 328 337 336
f 328 329 337
f 329 338 337
f 329 330 338
f 330 339 338
f 330 331 339
f 331 340 339
f 331 332 340
f 332 341 340
f 332 333 341
f 333 342 341
f 334 335 343
f 335 344 343
f 335 336 344
f 336 345 344
f 336 337 345
f 337 346 345
f 337 338 346
f 338 347 346
f 338 339 347
f 339 348 347
f 339 340 348
f 340 349 348
f 340 341 349
f 341 350 349
f 341 342 350
f 342 351 350
f 343 344 352
f 344 353 352
f 344 345 353
f 345 354 353
f 345 346 354
f 346 355 354
f 346 347 355
f 347 356 355
f 347 348 356
f 348 357 356
f 348 349 357
f 349 358 357
f 349 350 358
f 350 359 358
f 350 351 359
f 351 360 359
f 352 353 361
f 353 362 361
f 353 354 362
f 354 363 362
f 354 355 363
f 355 364 363
f 355 356 364
f 356 365 364
f 356 357 365
f 357 366 365
f 357 358 366
f 358 367 366
f 358 359 367
f 359 368 367
f 359 360 368
f 360 369 368
f 361 362 370
f 362 371 370
f 362 363 371
f 363 372 371
f 363 364 372
f 364 373 372
f 364 365 373
f 365 374 373
f 365 366 374
f 366 375 374
f 366 367 375
f 367 376 375
f 367 368 376
f 368 377 376
f 368 369 377
f 369 378 377
f 370 371 379
f 371 380 379
f 371 372 380
f 372 381 380
f 372 373 381
f 373 382 381
f 373 374 382
f 374 383 382
f 374 375 383
f 375 384 383
f 375 376 384
f 376 385 384
f 376 377 385
f 377 386 385
f 377 378 386
f 378 387 386
f 379 380 388
f 380 389 388
f 380 381 389
f 381 390 389
f 381 382 390
f 382 391 390
f 382 383 391
f 383 392 391
f 383 384 392
f 384 393 392
f 384 385 393
f 385 394 393
f 385 386 394
f 386 395 394
f 386 387 395
f 387 396 395
f 388 389 397
f 389 398 397
f 389 390 398
f 390 399 398
f 390 391 399
f 391 400 399
f 391 392 400
f 392 401 400
f 392 393 401
f 393 402 401
f 393 394 402
f 394 403 402
f 394 395 403
f 395 404 403
f 395 396 404
f 396 405 404
f 406 407 415
f 407 416 415
f 407 408 416
f 408 417 416
f 408 409 417
f 409 418 417
f 409 410 418
f 410 419 418
f 410 411 419
f 411 420 419
f 411 412 420
f 412 421 420
f 412 413 421
f 413 422 421
f 413 414 422
f 414 423 422
f 415 416 424
f 416 425 424
f 416 417 425
f 417 426 425
f 417 418 426
f 418 427 426
f 418 419 427
f 419 428 427
f 419 420 428
f 420 429 428
f 420 421 429
f 421 430 429
f 421 422 430
f 422 431 430
f 422 423 431
f 423 432 431
f 424 425 433
f 425 434 433
f 425 426 434
f 426 435 434
f 426 427 435
f 427 436 435
f 427 428 436
f 428 437 436
f 428 429 437
f 429 438 437
f 429 430 438
f 430 439 438
f 430 431 439
f 431 440 439
f 431 432 440
f 432 441 440
f 433 434 442
f 434 443 442
f 434 435 443
f 435 444 443
f 435 436 444
f 436 445 444
f 436 437 445
f 437 446 445
f 437 438 446
f 438 447 446
f 438 439 447
f 439 448 447
f 439 440 448
f 440 449 448
f 440 441 449
f 441 450 449
f 442 443 451
f 443 452 451
f 443 444 452
f 444 453 452
f 444 445 453
f 445 454 453
f 445 446 454
f 446 455 454
f 446 447 455
f 447 456 455
f 447 448 456
f 448 457 456
f 448 449 457
f 449 458 457
f 449 450 458
f 450 459 458
f 451 452 460
f 452 461 460
f 452 453 461
f 453 462 461
f 453 454 462
f 454 463 462
f 454 455 463
f 455 464 463
f 455 456 464
f 456 465 464
f 456 457 465
f 457 466 465
f 457 458 466
f 458 467 466
f 458 459 467
f 459 468 467
f 460 461 469
f 461 470 469
f 461 462 470
f 462 471 470
f 462 463 471
f 463 472 471
f 463 464 472
f 464 473 472
f 464 465 473
f 465 474 473
f 465 466 474
f 466 475 474
f 466 467 475
f 467 476 475
f 467 468 476
f 468 477 476
f 469 470 478
f 470 479 478
f 470 471 479
f 471 480 479
f 471 472 480
f 472 481 480
f 472 473 481
f 473 482 481
f 473 474 482
f 474 483 482
f 474 475 483
f 475 484 483
f 475 476 484
f 476 485 484
f 476 477 485
f 477 486 485
