# generated by migrate.py
v -0.100000 0.018000 0.000000
v 0.100000 0.018000 0.000000
v -0.100000 0.017990 0.000589
v 0.100000 0.017990 0.000589
v -0.100000 0.017961 0.001177
v 0.100000 0.017961 0.001177
v -0.100000 0.017913 0.001764
v 0.100000 0.017913 0.001764
v -0.100000 0.017846 0.002349
v 0.100000 0.017846 0.002349
v -0.100000 0.017760 0.002932
v 0.100000 0.017760 0.002932
v -0.100000 0.017654 0.003512
v 0.100000 0.017654 0.003512
v -0.100000 0.017530 0.004087
v 0.100000 0.017530 0.004087
v -0.100000 0.017387 0.004659
v 0.100000 0.017387 0.004659
v -0.100000 0.017225 0.005225
v 0.100000 0.017225 0.005225
v -0.100000 0.017045 0.005786
v 0.100000 0.017045 0.005786
v -0.100000 0.016846 0.006341
v 0.100000 0.016846 0.006341
v -0.100000 0.016630 0.006888
v 0.100000 0.016630 0.006888
v -0.100000 0.016396 0.007429
v 0.100000 0.016396 0.007429
v -0.100000 0.016144 0.007961
v 0.100000 0.016144 0.007961
v -0.100000 0.015875 0.008485
v 0.100000 0.015875 0.008485
v -0.100000 0.015588 0.009000
v 0.100000 0.015588 0.009000
v -0.100000 0.015286 0.009505
v 0.100000 0.015286 0.009505
v -0.100000 0.014966 0.010000
v 0.100000 0.014966 0.010000
v -0.100000 0.014631 0.010485
v 0.100000 0.014631 0.010485
v -0.100000 0.014280 0.010958
v 0.100000 0.014280 0.010958
v -0.100000 0.013914 0.011419
v 0.100000 0.013914 0.011419
v -0.100000 0.013533 0.011868
v 0.100000 0.013533 0.011868
v -0.100000 0.013138 0.012305
v 0.100000 0.013138 0.012305
v -0.100000 0.012728 0.012728
v 0.100000 0.012728 0.012728
v -0.100000 0.012305 0.013138
v 0.100000 0.012305 0.013138
v -0.100000 0.011868 0.013533
v 0.100000 0.011868 0.013533
v -0.100000 0.011419 0.013914
v 0.100000 0.011419 0.013914
v -0.100000 0.010958 0.014280
v 0.100000 0.010958 0.014280
v -0.100000 0.010485 0.014631
v 0.100000 0.010485 0.014631
v -0.100000 0.010000 0.014966
v 0.100000 0.010000 0.014966
v -0.100000 0.009505 0.015286
v 0.100000 0.009505 0.015286
v -0.100000 0.009000 0.015588
v 0.100000 0.009000 0.015588
v -0.100000 0.008485 0.015875
v 0.100000 0.008485 0.015875
v -0.100000 0.007961 0.016144
v 0.100000 0.007961 0.016144
v -0.100000 0.007429 0.016396
v 0.100000 0.007429 0.016396
v -0.100000 0.006888 0.016630
v 0.100000 0.006888 0.016630
v -0.100000 0.006341 0.016846
v 0.100000 0.006341 0.016846
v -0.100000 0.005786 0.017045
v 0.100000 0.005786 0.017045
v -0.100000 0.005225 0.017225
v 0.100000 0.005225 0.017225
v -0.100000 0.004659 0.017387
v 0.100000 0.004659 0.017387
v -0.100000 0.004087 0.017530
v 0.100000 0.004087 0.017530
v -0.100000 0.003512 0.017654
v 0.100000 0.003512 0.017654
v -0.100000 0.002932 0.017760
v 0.100000 0.002932 0.017760
v -0.100000 0.002349 0.017846
v 0.100000 0.002349 0.017846
v -0.100000 0.001764 0.017913
v 0.100000 0.001764 0.017913
v -0.100000 0.001177 0.017961
v 0.100000 0.001177 0.017961
v -0.100000 0.000589 0.017990
v 0.100000 0.000589 0.017990
v -0.100000 0.000000 0.018000
v 0.100000 0.000000 0.018000
v -0.100000 -0.000589 0.017990
v 0.100000 -0.000589 0.017990
v -0.100000 -0.001177 0.017961
v 0.100000 -0.001177 0.017961
v -0.100000 -0.001764 0.017913
v 0.100000 -0.001764 0.017913
v -0.100000 -0.002349 0.017846
v 0.100000 -0.002349 0.017846
v -0.100000 -0.002932 0.017760
v 0.100000 -0.002932 0.017760
v -0.100000 -0.003512 0.017654
v 0.100000 -0.003512 0.017654
v -0.100000 -0.004087 0.017530
v 0.100000 -0.004087 0.017530
v -0.100000 -0.004659 0.017387
v 0.100000 -0.004659 0.017387
v -0.100000 -0.005225 0.017225
v 0.100000 -0.005225 0.017225
v -0.100000 -0.005786 0.017045
v 0.100000 -0.005786 0.017045
v -0.100000 -0.006341 0.016846
v 0.100000 -0.006341 0.016846
v -0.100000 -0.006888 0.016630
v 0.100000 -0.006888 0.016630
v -0.100000 -0.007429 0.016396
v 0.100000 -0.007429 0.016396
v -0.100000 -0.007961 0.016144
v 0.100000 -0.007961 0.016144
v -0.100000 -0.008485 0.015875
v 0.100000 -0.008485 0.015875
v -0.100000 -0.009000 0.015588
v 0.100000 -0.009000 0.015588
v -0.100000 -0.009505 0.015286
v 0.100000 -0.009505 0.015286
v -0.100000 -0.010000 0.014966
v 0.100000 -0.010000 0.014966
v -0.100000 -0.010485 0.014631
v 0.100000 -0.010485 0.014631
v -0.100000 -0.010958 0.014280
v 0.100000 -0.010958 0.014280
v -0.100000 -0.011419 0.013914
v 0.100000 -0.011419 0.013914
v -0.100000 -0.011868 0.013533
v 0.100000 -0.011868 0.013533
v -0.100000 -0.012305 0.013138
v 0.100000 -0.012305 0.013138
v -0.100000 -0.012728 0.012728
v 0.100000 -0.012728 0.012728
v -0.100000 -0.013138 0.012305
v 0.100000 -0.013138 0.012305
v -0.100000 -0.013533 0.011868
v 0.100000 -0.013533 0.011868
v -0.100000 -0.013914 0.011419
v 0.100000 -0.013914 0.011419
v -0.100000 -0.014280 0.010958
v 0.100000 -0.014280 0.010958
v -0.100000 -0.014631 0.010485
v 0.100000 -0.014631 0.010485
v -0.100000 -0.014966 0.010000
v 0.100000 -0.014966 0.010000
v -0.100000 -0.015286 0.009505
v 0.100000 -0.015286 0.009505
v -0.100000 -0.015588 0.009000
v 0.100000 -0.015588 0.009000
v -0.100000 -0.015875 0.008485
v 0.100000 -0.015875 0.008485
v -0.100000 -0.016144 0.007961
v 0.100000 -0.016144 0.007961
v -0.100000 -0.016396 0.007429
v 0.100000 -0.016396 0.007429
v -0.100000 -0.016630 0.006888
v 0.100000 -0.016630 0.006888
v -0.100000 -0.016846 0.006341
v 0.100000 -0.016846 0.006341
v -0.100000 -0.017045 0.005786
v 0.100000 -0.017045 0.005786
v -0.100000 -0.017225 0.005225
v 0.100000 -0.017225 0.005225
v -0.100000 -0.017387 0.004659
v 0.100000 -0.017387 0.004659
v -0.100000 -0.017530 0.004087
v 0.100000 -0.017530 0.004087
v -0.100000 -0.017654 0.003512
v 0.100000 -0.017654 0.003512
v -0.100000 -0.017760 0.002932
v 0.100000 -0.017760 0.002932
v -0.100000 -0.017846 0.002349
v 0.100000 -0.017846 0.002349
v -0.100000 -0.017913 0.001764
v 0.100000 -0.017913 0.001764
v -0.100000 -0.017961 0.001177
v 0.100000 -0.017961 0.001177
v -0.100000 -0.017990 0.000589
v 0.100000 -0.017990 0.000589
v -0.100000 -0.018000 0.000000
v 0.100000 -0.018000 0.000000
v -0.100000 -0.017990 -0.000589
v 0.100000 -0.017990 -0.000589
v -0.100000 -0.017961 -0.001177
v 0.100000 -0.017961 -0.001177
v -0.100000 -0.017913 -0.001764
v 0.100000 -0.017913 -0.001764
v -0.100000 -0.017846 -0.002349
v 0.100000 -0.017846 -0.002349
v -0.100000 -0.017760 -0.002932
v 0.100000 -0.017760 -0.002932
v -0.100000 -0.017654 -0.003512
v 0.100000 -0.017654 -0.003512
v -0.100000 -0.017530 -0.004087
v 0.100000 -0.017530 -0.004087
v -0.100000 -0.017387 -0.004659
v 0.100000 -0.017387 -0.004659
v -0.100000 -0.017225 -0.005225
v 0.100000 -0.017225 -0.005225
v -0.100000 -0.017045 -0.005786
v 0.100000 -0.017045 -0.005786
v -0.100000 -0.016846 -0.006341
v 0.100000 -0.016846 -0.006341
v -0.100000 -0.016630 -0.006888
v 0.100000 -0.016630 -0.006888
v -0.100000 -0.016396 -0.007429
v 0.100000 -0.016396 -0.007429
v -0.100000 -0.016144 -0.007961
v 0.100000 -0.016144 -0.007961
v -0.100000 -0.015875 -0.008485
v 0.100000 -0.015875 -0.008485
v -0.100000 -0.015588 -0.009000
v 0.100000 -0.015588 -0.009000
v -0.100000 -0.015286 -0.009505
v 0.100000 -0.015286 -0.009505
v -0.100000 -0.014966 -0.010000
v 0.100000 -0.014966 -0.010000
v -0.100000 -0.014631 -0.010485
v 0.100000 -0.014631 -0.010485
v -0.100000 -0.014280 -0.010958
v 0.100000 -0.014280 -0.010958
v -0.100000 -0.013914 -0.011419
v 0.100000 -0.013914 -0.011419
v -0.100000 -0.013533 -0.011868
v 0.100000 -0.013533 -0.011868
v -0.100000 -0.013138 -0.012305
v 0.100000 -0.013138 -0.012305
v -0.100000 -0.012728 -0.012728
v 0.100000 -0.012728 -0.012728
v -0.100000 -0.012305 -0.013138
v 0.100000 -0.012305 -0.013138
v -0.100000 -0.011868 -0.013533
v 0.100000 -0.011868 -0.013533
v -0.100000 -0.011419 -0.013914
v 0.100000 -0.011419 -0.013914
v -0.100000 -0.010958 -0.014280
v 0.100000 -0.010958 -0.014280
v -0.100000 -0.010485 -0.014631
v 0.100000 -0.010485 -0.014631
v -0.100000 -0.010000 -0.014966
v 0.100000 -0.010000 -0.014966
v -0.100000 -0.009505 -0.015286
v 0.100000 -0.009505 -0.015286
v -0.100000 -0.009000 -0.015588
v 0.100000 -0.009000 -0.015588
v -0.100000 -0.008485 -0.015875
v 0.100000 -0.008485 -0.015875
v -0.100000 -0.007961 -0.016144
v 0.100000 -0.007961 -0.016144
v -0.100000 -0.007429 -0.016396
v 0.100000 -0.007429 -0.016396
v -0.100000 -0.006888 -0.016630
v 0.100000 -0.006888 -0.016630
v -0.100000 -0.006341 -0.016846
v 0.100000 -0.006341 -0.016846
v -0.100000 -0.005786 -0.017045
v 0.100000 -0.005786 -0.017045
v -0.100000 -0.005225 -0.017225
v 0.100000 -0.005225 -0.017225
v -0.100000 -0.004659 -0.017387
v 0.100000 -0.004659 -0.017387
v -0.100000 -0.004087 -0.017530
v 0.100000 -0.004087 -0.017530
v -0.100000 -0.003512 -0.017654
v 0.100000 -0.003512 -0.017654
v -0.100000 -0.002932 -0.017760
v 0.100000 -0.002932 -0.017760
v -0.100000 -0.002349 -0.017846
v 0.100000 -0.002349 -0.017846
v -0.100000 -0.001764 -0.017913
v 0.100000 -0.001764 -0.017913
v -0.100000 -0.001177 -0.017961
v 0.100000 -0.001177 -0.017961
v -0.100000 -0.000589 -0.017990
v 0.100000 -0.000589 -0.017990
v -0.100000 -0.000000 -0.018000
v 0.100000 -0.000000 -0.018000
v -0.100000 0.000589 -0.017990
v 0.100000 0.000589 -0.017990
v -0.100000 0.001177 -0.017961
v 0.100000 0.001177 -0.017961
v -0.100000 0.001764 -0.017913
v 0.100000 0.001764 -0.017913
v -0.100000 0.002349 -0.017846
v 0.100000 0.002349 -0.017846
v -0.100000 0.002932 -0.017760
v 0.100000 0.002932 -0.017760
v -0.100000 0.003512 -0.017654
v 0.100000 0.003512 -0.017654
v -0.100000 0.004087 -0.017530
v 0.100000 0.004087 -0.017530
v -0.100000 0.004659 -0.017387
v 0.100000 0.004659 -0.017387
v -0.100000 0.005225 -0.017225
v 0.100000 0.005225 -0.017225
v -0.100000 0.005786 -0.017045
v 0.100000 0.005786 -0.017045
v -0.100000 0.006341 -0.016846
v 0.100000 0.006341 -0.016846
v -0.100000 0.006888 -0.016630
v 0.100000 0.006888 -0.016630
v -0.100000 0.007429 -0.016396
v 0.100000 0.007429 -0.016396
v -0.100000 0.007961 -0.016144
v 0.100000 0.007961 -0.016144
v -0.100000 0.008485 -0.015875
v 0.100000 0.008485 -0.015875
v -0.100000 0.009000 -0.015588
v 0.100000 0.009000 -0.015588
v -0.100000 0.009505 -0.015286
v 0.100000 0.009505 -0.015286
v -0.100000 0.010000 -0.014966
v 0.100000 0.010000 -0.014966
v -0.100000 0.010485 -0.014631
v 0.100000 0.010485 -0.014631
v -0.100000 0.010958 -0.014280
v 0.100000 0.010958 -0.014280
v -0.100000 0.011419 -0.013914
v 0.100000 0.011419 -0.013914
v -0.100000 0.011868 -0.013533
v 0.100000 0.011868 -0.013533
v -0.100000 0.012305 -0.013138
v 0.100000 0.012305 -0.013138
v -0.100000 0.012728 -0.012728
v 0.100000 0.012728 -0.012728
v -0.100000 0.013138 -0.012305
v 0.100000 0.013138 -0.012305
v -0.100000 0.013533 -0.011868
v 0.100000 0.013533 -0.011868
v -0.100000 0.013914 -0.011419
v 0.100000 0.013914 -0.011419
v -0.100000 0.014280 -0.010958
v 0.100000 0.014280 -0.010958
v -0.100000 0.014631 -0.010485
v 0.100000 0.014631 -0.010485
v -0.100000 0.014966 -0.010000
v 0.100000 0.014966 -0.010000
v -0.100000 0.015286 -0.009505
v 0.100000 0.015286 -0.009505
v -0.100000 0.015588 -0.009000
v 0.100000 0.015588 -0.009000
v -0.100000 0.015875 -0.008485
v 0.100000 0.015875 -0.008485
v -0.100000 0.016144 -0.007961
v 0.100000 0.016144 -0.007961
v -0.100000 0.016396 -0.007429
v 0.100000 0.016396 -0.007429
v -0.100000 0.016630 -0.006888
v 0.100000 0.016630 -0.006888
v -0.100000 0.016846 -0.006341
v 0.100000 0.016846 -0.006341
v -0.100000 0.017045 -0.005786
v 0.100000 0.017045 -0.005786
v -0.100000 0.017225 -0.005225
v 0.100000 0.017225 -0.005225
v -0.100000 0.017387 -0.004659
v 0.100000 0.017387 -0.004659
v -0.100000 0.017530 -0.004087
v 0.100000 0.017530 -0.004087
v -0.100000 0.017654 -0.003512
v 0.100000 0.017654 -0.003512
v -0.100000 0.017760 -0.002932
v 0.100000 0.017760 -0.002932
v -0.100000 0.017846 -0.002349
v 0.100000 0.017846 -0.002349
v -0.100000 0.017913 -0.001764
v 0.100000 0.017913 -0.001764
v -0.100000 0.017961 -0.001177
v 0.100000 0.017961 -0.001177
v -0.100000 0.017990 -0.000589
v 0.100000 0.017990 -0.000589
f 1 2 4
f 1 4 3
f 3 4 6
f 3 6 5
f 5 6 8
f 5 8 7
f 7 8 10
f 7 10 9
f 9 10 12
f 9 12 11
f 11 12 14
f 11 14 13
f 13 14 16
f 13 16 15
f 15 16 18
f 15 18 17
f 17 18 20
f 17 20 19
f 19 20 22
f 19 22 21
f 21 22 24
f 21 24 23
f 23 24 26
f 23 26 25
f 25 26 28
f 25 28 27
f 27 28 30
f 27 30 29
f 29 30 32
f 29 32 31
f 31 32 34
f 31 34 33
f 33 34 36
f 33 36 35
f 35 36 38
f 35 38 37
f 37 38 40
f 37 40 39
f 39 40 42
f 39 42 41
f 41 42 44
f 41 44 43
f 43 44 46
f 43 46 45
f 45 46 48
f 45 48 47
f 47 48 50
f 47 50 49
f 49 50 52
f 49 52 51
f 51 52 54
f 51 54 53
f 53 54 56
f 53 56 55
f 55 56 58
f 55 58 57
f 57 58 60
f 57 60 59
f 59 60 62
f 59 62 61
f 61 62 64
f 61 64 63
f 63 64 66
f 63 66 65
f 65 66 68
f 65 68 67
f 67 68 70
f 67 70 69
f 69 70 72
f 69 72 71
f 71 72 74
f 71 74 73
f 73 74 76
f 73 76 75
f 75 76 78
f 75 78 77
f 77 78 80
f 77 80 79
f 79 80 82
f 79 82 81
f 81 82 84
f 81 84 83
f 83 84 86
f 83 86 85
f 85 86 88
f 85 88 87
f 87 88 90
f 87 90 89
f 89 90 92
f 89 92 91
f 91 92 94
f 91 94 93
f 93 94 96
f 93 96 95
f 95 96 98
f 95 98 97
f 97 98 100
f 97 100 99
f 99 100 102
f 99 102 101
f 101 102 104
f 101 104 103
f 103 104 106
f 103 106 105
f 105 106 108
f 105 108 107
f 107 108 110
f 107 110 109
f 109 110 112
f 109 112 111
f 111 112 114
f 111 114 113
f 113 114 116
f 113 116 115
f 115 116 118
f 115 118 117
f 117 118 120
f 117 120 119
f 119 120 122
f 119 122 121
f 121 122 124
f 121 124 123
f 123 124 126
f 123 126 125
f 125 126 128
f 125 128 127
f 127 128 130
f 127 130 129
f 129 130 132
f 129 132 131
f 131 132 134
f 131 134 133
f 133 134 136
f 133 136 135
f 135 136 138
f 135 138 137
f 137 138 140
f 137 140 139
f 139 140 142
f 139 142 141
f 141 142 144
f 141 144 143
f 143 144 146
f 143 146 145
f 145 146 148
f 145 148 147
f 147 148 150
f 147 150 149
f 149 150 152
f 149 152 151
f 151 152 154
f 151 154 153
f 153 154 156
f 153 156 155
f 155 156 158
f 155 158 157
f 157 158 160
f 157 160 159
f 159 160 162
f 159 162 161
f 161 162 164
f 161 164 163
f 163 164 166
f 163 166 165
f 165 166 168
f 165 168 167
f 167 168 170
f 167 170 169
f 169 170 172
f 169 172 171
f 171 172 174
f 171 174 173
f 173 174 176
f 173 176 175
f 175 176 178
f 175 178 177
f 177 178 180
f 177 180 179
f 179 180 182
f 179 182 181
f 181 182 184
f 181 184 183
f 183 184 186
f 183 186 185
f 185 186 188
f 185 188 187
f 187 188 190
f 187 190 189
f 189 190 192
f 189 192 191
f 191 192 194
f 191 194 193
f 193 194 196
f 193 196 195
f 195 196 198
f 195 198 197
f 197 198 200
f 197 200 199
f 199 200 202
f 199 202 201
f 201 202 204
f 201 204 203
f 203 204 206
f 203 206 205
f 205 206 208
f 205 208 207
f 207 208 210
f 207 210 209
f 209 210 212
f 209 212 211
f 211 212 214
f 211 214 213
f 213 214 216
f 213 216 215
f 215 216 218
f 215 218 217
f 217 218 220
f 217 220 219
f 219 220 222
f 219 222 221
f 221 222 224
f 221 224 223
f 223 224 226
f 223 226 225
f 225 226 228
f 225 228 227
f 227 228 230
f 227 230 229
f 229 230 232
f 229 232 231
f 231 232 234
f 231 234 233
f 233 234 236
f 233 236 235
f 235 236 238
f 235 238 237
f 237 238 240
f 237 240 239
f 239 240 242
f 239 242 241
f 241 242 244
f 241 244 243
f 243 244 246
f 243 246 245
f 245 246 248
f 245 248 247
f 247 248 250
f 247 250 249
f 249 250 252
f 249 252 251
f 251 252 254
f 251 254 253
f 253 254 256
f 253 256 255
f 255 256 258
f 255 258 257
f 257 258 260
f 257 260 259
f 259 260 262
f 259 262 261
f 261 262 264
f 261 264 263
f 263 264 266
f 263 266 265
f 265 266 268
f 265 268 267
f 267 268 270
f 267 270 269
f 269 270 272
f 269 272 271
f 271 272 274
f 271 274 273
f 273 274 276
f 273 276 275
f 275 276 278
f 275 278 277
f 277 278 280
f 277 280 279
f 279 280 282
f 279 282 281
f 281 282 284
f 281 284 283
f 283 284 286
f 283 286 285
f 285 286 288
f 285 288 287
f 287 288 290
f 287 290 289
f 289 290 292
f 289 292 291
f 291 292 294
f 291 294 293
f 293 294 296
f 293 296 295
f 295 296 298
f 295 298 297
f 297 298 300
f 297 300 299
f 299 300 302
f 299 302 301
f 301 302 304
f 301 304 303
f 303 304 306
f 303 306 305
f 305 306 308
f 305 308 307
f 307 308 310
f 307 310 309
f 309 310 312
f 309 312 311
f 311 312 314
f 311 314 313
f 313 314 316
f 313 316 315
f 315 316 318
f 315 318 317
f 317 318 320
f 317 320 319
f 319 320 322
f 319 322 321
f 321 322 324
f 321 324 323
f 323 324 326
f 323 326 325
f 325 326 328
f 325 328 327
f 327 328 330
f 327 330 329
f 329 330 332
f 329 332 331
f 331 332 334
f 331 334 333
f 333 334 336
f 333 336 335
f 335 336 338
f 335 338 337
f 337 338 340
f 337 340 339
f 339 340 342
f 339 342 341
f 341 342 344
f 341 344 343
f 343 344 346
f 343 346 345
f 345 346 348
f 345 348 347
f 347 348 350
f 347 350 349
f 349 350 352
f 349 352 351
f 351 352 354
f 351 354 353
f 353 354 356
f 353 356 355
f 355 356 358
f 355 358 357
f 357 358 360
f 357 360 359
f 359 360 362
f 359 362 361
f 361 362 364
f 361 364 363
f 363 364 366
f 363 366 365
f 365 366 368
f 365 368 367
f 367 368 370
f 367 370 369
f 369 370 372
f 369 372 371
f 371 372 374
f 371 374 373
f 373 374 376
f 373 376 375
f 375 376 378
f 375 378 377
f 377 378 380
f 377 380 379
f 379 380 382
f 379 382 381
f 381 382 384
f 381 384 383
f 383 384 2
f 383 2 1
